<svg xmlns="http://www.w3.org/2000/svg" viewBox="0 0 154.87 83.26"><defs><style>.cls-1{font-size:4.54px;}.cls-1,.cls-2{fill:#1c1c1a;font-family:VTBGroupCond-Light, VTBGroupCond Light;font-weight:300;}.cls-2{font-size:2.41px;}.cls-3{fill:#244aa2;}.cls-4{fill:#111212;}</style></defs><g id="Layer_2" data-name="Layer 2"><g id="Layer_1-2" data-name="Layer 1"><text class="cls-1" transform="translate(21.08 82.13)"> </text><text class="cls-2" transform="translate(113.39 21.24)"> </text><polygon class="cls-3" points="88.2 18.75 77.45 30.33 66.7 18.75 70.55 35.12 84.34 35.12 88.2 18.75"/><path class="cls-3" d="M75.1,4.5,67.83,9.79l9.62,11.1,9.61-11.1L79.77,4.5a4,4,0,0,0-4.67,0"/><path class="cls-3" d="M94.63,10.85,81.46,1.28a7,7,0,0,0-8,0L60.25,10.85a6.83,6.83,0,0,0-2.49,7.66l5,15.48a6.82,6.82,0,0,0,6.51,4.73H85.57A6.83,6.83,0,0,0,92.09,34l5-15.47a6.83,6.83,0,0,0-2.49-7.66M95.49,18l-5,15.47A5.12,5.12,0,0,1,85.57,37H69.3a5.11,5.11,0,0,1-4.88-3.54L59.39,18a5.12,5.12,0,0,1,1.86-5.74l5.34-3.88,7.83-5.69a5.13,5.13,0,0,1,6,0l7.85,5.7,5.32,3.87A5.14,5.14,0,0,1,95.49,18"/><polygon class="cls-4" points="22.97 55.82 26.96 55.82 27.83 52.52 22.97 52.52 22.97 49.81 27.6 49.81 28.48 46.5 19.52 46.5 19.52 61.93 27.6 61.93 28.7 58.62 22.97 58.62 22.97 55.82"/><polygon class="cls-4" points="31.09 49.81 35.62 49.81 35.62 61.93 39.08 61.93 39.08 49.81 42.8 49.81 43.61 46.5 31.09 46.5 31.09 49.81"/><path class="cls-4" d="M51.28,46.46c-.42,0-1.24,0-2.45,0l-2.18,0V61.93h3.46V56.68a13.93,13.93,0,0,0,1.68.07,5.57,5.57,0,0,0,4.06-1.5,5,5,0,0,0,1.54-3.68,4.93,4.93,0,0,0-1.45-3.66c-1-1-2.53-1.45-4.66-1.45m.41,7a12.48,12.48,0,0,1-1.58-.11V49.81c1,0,1.45-.05,1.51-.05,1.4,0,2.09.6,2.09,1.79a1.8,1.8,0,0,1-2,1.89"/><path class="cls-4" d="M68,46.24A8.15,8.15,0,0,0,62.24,60,8,8,0,0,0,68,62.19a7.82,7.82,0,0,0,5.74-2.25,7.65,7.65,0,0,0,2.29-5.72,7.7,7.7,0,0,0-2.27-5.8A7.92,7.92,0,0,0,68,46.24m3.21,11.35a4.41,4.41,0,0,1-6.3-.05,5.08,5.08,0,0,1,0-6.7A4.13,4.13,0,0,1,68,49.54a4.21,4.21,0,0,1,3.11,1.3,4.63,4.63,0,0,1,1.25,3.38,5,5,0,0,1-1.15,3.37"/><path class="cls-4" d="M86.92,58.89a4.44,4.44,0,0,1-3.31-1.3,5.33,5.33,0,0,1-.08-6.81,4.05,4.05,0,0,1,3-1.24,5.75,5.75,0,0,1,3.09,1l1.53-2.64a6.74,6.74,0,0,0-4.62-1.61,7.53,7.53,0,0,0-5.83,2.25,8.12,8.12,0,0,0-2.07,5.73,7.52,7.52,0,0,0,7.92,8,8.24,8.24,0,0,0,2.87-.48,4.88,4.88,0,0,0,2.06-1.3L90.2,57.76a5.24,5.24,0,0,1-3.28,1.13"/><polygon class="cls-4" points="93.05 49.81 97.58 49.81 97.58 61.93 101.03 61.93 101.03 49.81 104.71 49.81 105.57 46.5 93.05 46.5 93.05 49.81"/><path class="cls-4" d="M113.23,46.46c-.41,0-1.23,0-2.44,0l-2.18,0V61.93h3.45V56.68a14,14,0,0,0,1.69.07,5.6,5.6,0,0,0,4.06-1.5,5,5,0,0,0,1.53-3.68,4.89,4.89,0,0,0-1.45-3.66q-1.45-1.45-4.66-1.45m.41,7a12.48,12.48,0,0,1-1.58-.11V49.81c1,0,1.45-.05,1.52-.05,1.4,0,2.09.6,2.09,1.79a1.81,1.81,0,0,1-2,1.89"/><path class="cls-4" d="M130,46.24A8.15,8.15,0,0,0,124.2,60,8,8,0,0,0,130,62.19a7.84,7.84,0,0,0,5.75-2.25A7.65,7.65,0,0,0,138,54.22a7.69,7.69,0,0,0-2.26-5.8A7.92,7.92,0,0,0,130,46.24m3.22,11.35a4.42,4.42,0,0,1-6.31-.05,5.11,5.11,0,0,1,0-6.7,4.14,4.14,0,0,1,3.13-1.3,4.19,4.19,0,0,1,3.11,1.3,4.63,4.63,0,0,1,1.25,3.38,5,5,0,0,1-1.14,3.37"/><polygon class="cls-4" points="151.85 46.5 145.16 56.09 145.16 46.5 141.7 46.5 141.7 61.93 144.73 61.93 151.42 52.34 151.42 61.93 154.87 61.93 154.87 46.5 151.85 46.5"/><polygon class="cls-4" points="146.28 43.71 148.29 46.5 150.29 43.71 146.28 43.71"/><polygon class="cls-4" points="12.28 46.48 7.88 52.62 7.88 52.64 3.47 46.5 0 46.5 0 61.91 3.45 61.91 3.45 52.22 7.62 58.17 7.88 58.17 7.88 58.15 8.14 58.15 12.3 52.2 12.3 61.9 15.76 61.9 15.76 46.48 12.28 46.48"/><path class="cls-4" d="M43.2,73.38l.43.85a1.61,1.61,0,0,1-.67.42,3,3,0,0,1-1,.16,2.62,2.62,0,0,1-1.89-.71,2.49,2.49,0,0,1-.72-1.87,2.62,2.62,0,0,1,.68-1.85A2.53,2.53,0,0,1,42,69.66a2.86,2.86,0,0,1,.89.14,1.68,1.68,0,0,1,.63.38L43,71a2,2,0,0,0-1-.31,1.39,1.39,0,0,0-1,.4,1.53,1.53,0,0,0-.39,1.11A1.49,1.49,0,0,0,41,73.32a1.47,1.47,0,0,0,1.09.42,1.78,1.78,0,0,0,1.08-.36"/><polygon class="cls-4" points="44.41 74.72 44.41 69.74 47.37 69.74 47.37 70.81 45.55 70.81 45.55 71.68 47.15 71.68 47.15 72.75 45.55 72.75 45.55 73.66 47.44 73.66 47.44 74.72 44.41 74.72"/><path class="cls-4" d="M48.51,74.71V69.76c.55,0,1.05-.05,1.5-.05a2,2,0,0,1,1.26.34,1.11,1.11,0,0,1,.42.9,1.24,1.24,0,0,1-.57,1.11v0a1.09,1.09,0,0,1,.51.4,1.28,1.28,0,0,1,.2.73,1.36,1.36,0,0,1-.52,1.15,2.25,2.25,0,0,1-1.37.39c-.66,0-1.14,0-1.43,0M50,70.78l-.36,0v.9H50c.35,0,.53-.16.53-.48a.41.41,0,0,0-.16-.33.65.65,0,0,0-.39-.12m.08,1.93h-.44v.93a1.51,1.51,0,0,0,.39,0c.44,0,.66-.17.66-.52s-.2-.45-.61-.45"/><polygon class="cls-4" points="52.9 74.72 52.9 69.74 55.85 69.74 55.85 70.81 54.03 70.81 54.03 71.68 55.63 71.68 55.63 72.75 54.03 72.75 54.03 73.66 55.92 73.66 55.92 74.72 52.9 74.72"/><path class="cls-4" d="M58.13,74.72H57v-5h1.52a2.15,2.15,0,0,1,1.54.46,1.62,1.62,0,0,1,.47,1.19,1.56,1.56,0,0,1-.5,1.18,1.83,1.83,0,0,1-1.34.49l-.55,0Zm.49-3.93-.49,0V72l.52,0a.72.72,0,0,0,.46-.14.51.51,0,0,0,.2-.47c0-.38-.23-.58-.69-.58"/><polygon class="cls-4" points="64.4 74.72 64.4 72.72 62.59 72.72 62.59 74.72 61.45 74.72 61.45 69.74 62.59 69.74 62.59 71.65 64.4 71.65 64.4 69.74 65.54 69.74 65.54 74.72 64.4 74.72"/><path class="cls-4" d="M66.47,72.23a2.5,2.5,0,0,1,.73-1.84,2.59,2.59,0,0,1,1.91-.73,2.66,2.66,0,0,1,1.91.7,2.69,2.69,0,0,1,0,3.72,2.59,2.59,0,0,1-1.9.73,2.65,2.65,0,0,1-1.9-.71,2.43,2.43,0,0,1-.74-1.87m1.2,0a1.49,1.49,0,0,0,.42,1.08,1.36,1.36,0,0,0,1,.43,1.34,1.34,0,0,0,1.06-.42,1.61,1.61,0,0,0,.38-1.09,1.52,1.52,0,0,0-.41-1.09,1.4,1.4,0,0,0-1-.42,1.38,1.38,0,0,0-1,.42,1.5,1.5,0,0,0-.41,1.09"/><path class="cls-4" d="M73.68,74.72h-1v-5h1.14v3.1L76,69.74h1v5H75.89V71.63Zm-.21-6.26h1.06a.36.36,0,0,0,.1.28.58.58,0,0,0,.34.08.6.6,0,0,0,.32-.07.34.34,0,0,0,.1-.29h1.06a1,1,0,0,1-.4.83,2.09,2.09,0,0,1-2.19,0,1,1,0,0,1-.39-.83"/><path class="cls-4" d="M83.17,73.38l.44.85a1.72,1.72,0,0,1-.68.42,3,3,0,0,1-1,.16,2.58,2.58,0,0,1-1.88-.71,2.46,2.46,0,0,1-.73-1.87,2.59,2.59,0,0,1,.69-1.85A2.5,2.5,0,0,1,82,69.66a2.8,2.8,0,0,1,.88.14,1.73,1.73,0,0,1,.64.38L83,71a2,2,0,0,0-1-.31,1.36,1.36,0,0,0-1,.4,1.53,1.53,0,0,0,1.11,2.62,1.76,1.76,0,0,0,1.08-.36"/><polygon class="cls-4" points="83.82 70.81 83.82 69.74 87.95 69.74 87.95 70.81 86.45 70.81 86.45 74.72 85.31 74.72 85.31 70.81 83.82 70.81"/><path class="cls-4" d="M88.09,72.23a2.47,2.47,0,0,1,.74-1.84,2.57,2.57,0,0,1,1.91-.73,2.66,2.66,0,0,1,1.9.7,2.69,2.69,0,0,1,0,3.72,2.59,2.59,0,0,1-1.89.73,2.67,2.67,0,0,1-1.91-.71,2.47,2.47,0,0,1-.74-1.87m1.21,0a1.49,1.49,0,0,0,.42,1.08,1.48,1.48,0,0,0,2.08,0,1.6,1.6,0,0,0,.37-1.09,1.52,1.52,0,0,0-.41-1.09,1.47,1.47,0,0,0-2.06,0,1.5,1.5,0,0,0-.4,1.09"/><path class="cls-4" d="M97,74.72V70.81h-1.1l-.11.94a11,11,0,0,1-.28,1.6,2.57,2.57,0,0,1-.44.94,1.16,1.16,0,0,1-.59.42,1.83,1.83,0,0,1-.78,0l0-1.14a.52.52,0,0,0,.25,0,.57.57,0,0,0,.24-.18,1.34,1.34,0,0,0,.22-.45,5.05,5.05,0,0,0,.19-.85c.06-.38.1-.83.14-1.36l.07-1h3.3v5Z"/><polygon class="cls-4" points="100.39 74.72 99.39 74.72 99.39 69.74 100.53 69.74 100.53 72.84 102.74 69.74 103.73 69.74 103.73 74.72 102.6 74.72 102.6 71.63 100.39 74.72"/><polygon class="cls-4" points="105.02 74.72 105.02 69.74 106.15 69.74 106.15 73.66 107.86 73.66 107.86 69.74 109 69.74 109 73.66 109.68 73.66 109.68 75.58 108.61 75.58 108.61 74.72 105.02 74.72"/><path class="cls-4" d="M111.6,69.74V71.3l.44,0a1.83,1.83,0,0,1,1.35.45,1.63,1.63,0,0,1,.46,1.23,1.68,1.68,0,0,1-.54,1.3,2.19,2.19,0,0,1-1.51.49h-1.34v-5Zm.34,2.6-.34,0v1.27l.33,0c.48,0,.71-.23.71-.69a.6.6,0,0,0-.18-.48.77.77,0,0,0-.52-.16m2.4-2.6h1.14v5h-1.14Z"/></g></g></svg>